<svg version="1.1" xmlns="http://www.w3.org/2000/svg" viewBox="-157.82965483000862 -24.7815485804405 215.29161606625297 53.78738455035263" fill="none" stroke="black" stroke-width="0.6%" vector-effect="non-scaling-stroke">
    <path d="M -150.10296 14.55077 L -17.02519 27.29595 L -17.02519 11.36005 L -150.10296 -1.38513" />
    <path d="M -150.10296 14.55077 L -150.10296 -1.38513" />
    <path d="M 26.24811 25.77034 A 25 2.2355 360 0 1 -17.02519 27.29595" />
    <path d="M 43.21238 7.22299 L 19.81269 8.3372" />
    <path d="M 43.21238 7.22299 L 45.88539 7.07574 A 25 2.2355 180 0 0 56.46196 5.24981" />
    <path d="M -150.10296 14.55077 A 25 2.2355 360 0 1 -156.82965 13.02516" />
    <path d="M -143.58008 -4.88393 A 25 2.2355 180 0 0 -156.82965 -2.91075 A 25 2.2355 180 0 0 -150.10296 -1.38513" />
    <path d="M 19.52142 8.30882 A 25 2.2355 360 0 1 26.24811 9.83443 A 25 2.2355 360 0 1 -17.02519 11.36005" />
    <path d="M 19.52142 8.30882 L -73.29179 -0.58013 A 25 2.2355 360 0 1 -80.01849 -2.10574 A 25 2.2355 360 0 1 -78.26278 -2.92871 L 43.21238 -8.71291 L 45.88539 -8.86016 A 25 2.2355 180 0 0 56.46196 -10.68609 L 56.46196 5.24981" />
    <path d="M 56.46196 -10.68609 A 25 2.2355 180 0 0 31.04867 -12.92128" />
    <path d="M 23.04867 -12.7912 A 25 2.2355 180 0 0 21.12029 -12.72135 L 19.71154 -12.65927 L -4.25762 -11.51795" />
    <path d="M -12.25762 -11.13702 L -143.58008 -4.88393" />
    <path d="M 31.04867 -10.47595 A 4 0.35768 360 0 1 23.04867 -10.47595" />
    <path d="M -4.25762 -8.79479 A 4 0.35768 360 0 1 -12.25762 -8.79479" />
    <path d="M -78.26278 -1.28278 L -78.26278 -2.92871" />
    <path d="M 43.21238 7.22299 L 43.21238 -8.71291" />
    <path d="M 45.88539 7.07574 L 45.88539 -8.86016" />
    <path d="M 25.16861 -23.73958 A 4 0.35768 360 0 1 31.04867 -23.42387 L 31.04867 -10.47595" />
    <path d="M 31.04867 -23.42387 A 4 0.35768 360 0 1 23.04867 -23.42387 L 23.04867 -10.47595" />
    <path d="M 23.04867 -23.42387 A 4 0.35768 360 0 1 25.16861 -23.73958" />
    <path d="M -10.13769 -22.05842 A 4 0.35768 360 0 1 -4.25762 -21.74271 L -4.25762 -8.79479" />
    <path d="M -4.25762 -21.74271 A 4 0.35768 360 0 1 -12.25762 -21.74271 L -12.25762 -8.79479" />
    <path d="M -12.25762 -21.74271 A 4 0.35768 360 0 1 -10.13769 -22.05842" />
    <path d="M -156.82965 -2.91075 L -156.82965 13.02516" />
    <path d="M 26.24811 9.83443 L 26.24811 25.77034" />
</svg>