<svg version="1.1" xmlns="http://www.w3.org/2000/svg" viewBox="-125.23781154725611 -17.75752195530211 187.57537205185062 45.641717932487346" fill="none" stroke="black" stroke-width="0.6%" vector-effect="non-scaling-stroke">
    <path d="M -24.87498 -1.11855 L -24.87498 -2.71487 L 61.33756 -8.86965 L 34.21432 -13.51353 L -57.43427 -6.97066" />
    <path d="M 61.33756 7.03226 L 61.33756 -8.86965" />
    <path d="M 49.75184 7.85938 L 61.33756 7.03226" />
    <path d="M -17.71638 0.13251 A 25 2.76395 360 0 1 -25.94004 -1.91671 A 25 2.76395 360 0 1 -24.87498 -2.71487" />
    <path d="M -124.23781 15.20576 A 25 2.76395 180 0 0 -87.02168 17.61726 L -85.67619 17.5277 L -80.7896 17.17884 L 16.19917 26.88419 L 49.75184 22.78575 L 49.75184 6.88384 L -17.71638 0.13251" />
    <path d="M -65.43427 -6.39953 L -91.03742 -4.5717" />
    <path d="M -99.03742 -4.00058 L -112.79943 -3.0181 L -115.32474 -2.81187 A 25 2.76395 180 0 0 -124.23781 -0.69616 L -124.23781 15.20576" />
    <path d="M -124.23781 -0.69616 A 25 2.76395 180 0 0 -87.02168 1.71534 L -85.67619 1.62578 L -80.7896 1.27692 L 16.19917 10.98228 L 49.75184 6.88384" />
    <path d="M -57.43427 -3.39498 A 4 0.44223 360 1 1 -65.43427 -3.39498" />
    <path d="M -91.03742 -0.99603 A 4 0.44223 360 1 1 -99.03742 -0.99603" />
    <path d="M -87.02168 17.61726 L -87.02168 1.71534" />
    <path d="M -85.67619 17.5277 L -85.67619 1.62578" />
    <path d="M -80.7896 17.17884 L -80.7896 1.27692" />
    <path d="M 16.19917 26.88419 L 16.19917 10.98228" />
    <path d="M -63.60413 -16.6868 A 4 0.44223 360 0 1 -57.43427 -16.31529 L -57.43427 -3.39498" />
    <path d="M -57.43427 -16.31529 A 4 0.44223 360 1 1 -65.43427 -16.31529 L -65.43427 -3.39498" />
    <path d="M -65.43427 -16.31529 A 4 0.44223 360 0 1 -63.60413 -16.6868" />
    <path d="M -97.20728 -14.28784 A 4 0.44223 360 0 1 -91.03742 -13.91633 L -91.03742 -0.99603" />
    <path d="M -91.03742 -13.91633 A 4 0.44223 360 1 1 -99.03742 -13.91633 L -99.03742 -0.99603" />
    <path d="M -99.03742 -13.91633 A 4 0.44223 360 0 1 -97.20728 -14.28784" />
</svg>